<mxfile host="drawio-plugin" modified="2022-06-10T08:53:06.850Z" agent="5.0 (X11; Linux x86_64) AppleWebKit/537.36 (KHTML, like Gecko) Chrome/89.0.4389.114 Safari/537.36" etag="PFpGu4Sz8m8dqDHLL1xF" version="14.7.4" type="embed"><diagram id="9cKF6rGZbC5fZpRnAdb2" name="Page-1"><mxGraphModel dx="1531" dy="842" grid="1" gridSize="10" guides="1" tooltips="1" connect="1" arrows="1" fold="1" page="1" pageScale="1" pageWidth="850" pageHeight="1100" math="0" shadow="0"><root><mxCell id="0"/><mxCell id="1" parent="0"/><mxCell id="VGFFOROoJUvGb_A7gc8y-29" value="" style="rounded=0;whiteSpace=wrap;html=1;" parent="1" vertex="1"><mxGeometry y="90" width="1360" height="410" as="geometry"/></mxCell><mxCell id="VGFFOROoJUvGb_A7gc8y-1" value="Deal" style="swimlane;fontStyle=1;childLayout=stackLayout;horizontal=1;startSize=30;horizontalStack=0;resizeParent=1;resizeParentMax=0;resizeLast=0;collapsible=1;marginBottom=0;fillColor=#d5e8d4;strokeColor=#82b366;strokeWidth=2;" parent="1" vertex="1"><mxGeometry x="50" y="230" width="140" height="180" as="geometry"/></mxCell><mxCell id="VGFFOROoJUvGb_A7gc8y-2" value="operationId" style="text;strokeColor=#666666;fillColor=#f5f5f5;align=left;verticalAlign=middle;spacingLeft=4;spacingRight=4;overflow=hidden;points=[[0,0.5],[1,0.5]];portConstraint=eastwest;rotatable=0;fontColor=#333333;" parent="VGFFOROoJUvGb_A7gc8y-1" vertex="1"><mxGeometry y="30" width="140" height="30" as="geometry"/></mxCell><mxCell id="VGFFOROoJUvGb_A7gc8y-5" value="timestamp" style="text;strokeColor=#666666;fillColor=#f5f5f5;align=left;verticalAlign=middle;spacingLeft=4;spacingRight=4;overflow=hidden;points=[[0,0.5],[1,0.5]];portConstraint=eastwest;rotatable=0;fontColor=#333333;" parent="VGFFOROoJUvGb_A7gc8y-1" vertex="1"><mxGeometry y="60" width="140" height="30" as="geometry"/></mxCell><mxCell id="VGFFOROoJUvGb_A7gc8y-6" value="dealId" style="text;strokeColor=#666666;fillColor=#f5f5f5;align=left;verticalAlign=middle;spacingLeft=4;spacingRight=4;overflow=hidden;points=[[0,0.5],[1,0.5]];portConstraint=eastwest;rotatable=0;fontColor=#333333;" parent="VGFFOROoJUvGb_A7gc8y-1" vertex="1"><mxGeometry y="90" width="140" height="30" as="geometry"/></mxCell><mxCell id="VGFFOROoJUvGb_A7gc8y-3" value="legs" style="text;strokeColor=#666666;fillColor=#f5f5f5;align=left;verticalAlign=middle;spacingLeft=4;spacingRight=4;overflow=hidden;points=[[0,0.5],[1,0.5]];portConstraint=eastwest;rotatable=0;fontColor=#333333;" parent="VGFFOROoJUvGb_A7gc8y-1" vertex="1"><mxGeometry y="120" width="140" height="30" as="geometry"/></mxCell><mxCell id="VGFFOROoJUvGb_A7gc8y-4" value="extra" style="text;strokeColor=#666666;fillColor=#f5f5f5;align=left;verticalAlign=middle;spacingLeft=4;spacingRight=4;overflow=hidden;points=[[0,0.5],[1,0.5]];portConstraint=eastwest;rotatable=0;fontColor=#333333;" parent="VGFFOROoJUvGb_A7gc8y-1" vertex="1"><mxGeometry y="150" width="140" height="30" as="geometry"/></mxCell><mxCell id="VGFFOROoJUvGb_A7gc8y-7" value="DealExtraData" style="swimlane;fontStyle=1;childLayout=stackLayout;horizontal=1;startSize=30;horizontalStack=0;resizeParent=1;resizeParentMax=0;resizeLast=0;collapsible=1;marginBottom=0;fillColor=#d5e8d4;strokeColor=#82b366;strokeWidth=2;" parent="1" vertex="1"><mxGeometry x="450" y="230" width="140" height="120" as="geometry"/></mxCell><mxCell id="VGFFOROoJUvGb_A7gc8y-8" value="members" style="text;strokeColor=#666666;fillColor=#f5f5f5;align=left;verticalAlign=middle;spacingLeft=4;spacingRight=4;overflow=hidden;points=[[0,0.5],[1,0.5]];portConstraint=eastwest;rotatable=0;fontColor=#333333;" parent="VGFFOROoJUvGb_A7gc8y-7" vertex="1"><mxGeometry y="30" width="140" height="30" as="geometry"/></mxCell><mxCell id="VGFFOROoJUvGb_A7gc8y-9" value="legs" style="text;strokeColor=#666666;fillColor=#f5f5f5;align=left;verticalAlign=middle;spacingLeft=4;spacingRight=4;overflow=hidden;points=[[0,0.5],[1,0.5]];portConstraint=eastwest;rotatable=0;fontColor=#333333;" parent="VGFFOROoJUvGb_A7gc8y-7" vertex="1"><mxGeometry y="60" width="140" height="30" as="geometry"/></mxCell><mxCell id="VGFFOROoJUvGb_A7gc8y-10" value="extra" style="text;strokeColor=#666666;fillColor=#f5f5f5;align=left;verticalAlign=middle;spacingLeft=4;spacingRight=4;overflow=hidden;points=[[0,0.5],[1,0.5]];portConstraint=eastwest;rotatable=0;fontColor=#333333;" parent="VGFFOROoJUvGb_A7gc8y-7" vertex="1"><mxGeometry y="90" width="140" height="30" as="geometry"/></mxCell><mxCell id="VGFFOROoJUvGb_A7gc8y-13" value="DealMember" style="swimlane;fontStyle=1;childLayout=stackLayout;horizontal=1;startSize=30;horizontalStack=0;resizeParent=1;resizeParentMax=0;resizeLast=0;collapsible=1;marginBottom=0;fillColor=#d5e8d4;strokeColor=#82b366;strokeWidth=2;" parent="1" vertex="1"><mxGeometry x="720" y="150" width="140" height="90" as="geometry"/></mxCell><mxCell id="VGFFOROoJUvGb_A7gc8y-14" value="id" style="text;strokeColor=#666666;fillColor=#f5f5f5;align=left;verticalAlign=middle;spacingLeft=4;spacingRight=4;overflow=hidden;points=[[0,0.5],[1,0.5]];portConstraint=eastwest;rotatable=0;fontColor=#333333;" parent="VGFFOROoJUvGb_A7gc8y-13" vertex="1"><mxGeometry y="30" width="140" height="30" as="geometry"/></mxCell><mxCell id="VGFFOROoJUvGb_A7gc8y-15" value="endorsements" style="text;strokeColor=#666666;fillColor=#f5f5f5;align=left;verticalAlign=middle;spacingLeft=4;spacingRight=4;overflow=hidden;points=[[0,0.5],[1,0.5]];portConstraint=eastwest;rotatable=0;fontColor=#333333;" parent="VGFFOROoJUvGb_A7gc8y-13" vertex="1"><mxGeometry y="60" width="140" height="30" as="geometry"/></mxCell><mxCell id="VGFFOROoJUvGb_A7gc8y-17" value="LegInfo" style="swimlane;fontStyle=1;childLayout=stackLayout;horizontal=1;startSize=30;horizontalStack=0;resizeParent=1;resizeParentMax=0;resizeLast=0;collapsible=1;marginBottom=0;fillColor=#d5e8d4;strokeColor=#82b366;strokeWidth=2;" parent="1" vertex="1"><mxGeometry x="720" y="340" width="140" height="90" as="geometry"/></mxCell><mxCell id="VGFFOROoJUvGb_A7gc8y-18" value="from" style="text;strokeColor=#666666;fillColor=#f5f5f5;align=left;verticalAlign=middle;spacingLeft=4;spacingRight=4;overflow=hidden;points=[[0,0.5],[1,0.5]];portConstraint=eastwest;rotatable=0;fontColor=#333333;" parent="VGFFOROoJUvGb_A7gc8y-17" vertex="1"><mxGeometry y="30" width="140" height="30" as="geometry"/></mxCell><mxCell id="VGFFOROoJUvGb_A7gc8y-19" value="to" style="text;strokeColor=#666666;fillColor=#f5f5f5;align=left;verticalAlign=middle;spacingLeft=4;spacingRight=4;overflow=hidden;points=[[0,0.5],[1,0.5]];portConstraint=eastwest;rotatable=0;fontColor=#333333;" parent="VGFFOROoJUvGb_A7gc8y-17" vertex="1"><mxGeometry y="60" width="140" height="30" as="geometry"/></mxCell><mxCell id="VGFFOROoJUvGb_A7gc8y-20" value="" style="edgeStyle=elbowEdgeStyle;elbow=vertical;endArrow=classic;html=1;rounded=1;entryX=0.364;entryY=-0.011;entryDx=0;entryDy=0;entryPerimeter=0;exitX=1;exitY=0.5;exitDx=0;exitDy=0;" parent="1" source="VGFFOROoJUvGb_A7gc8y-9" target="VGFFOROoJUvGb_A7gc8y-17" edge="1"><mxGeometry width="50" height="50" relative="1" as="geometry"><mxPoint x="510" y="630" as="sourcePoint"/><mxPoint x="560" y="580" as="targetPoint"/><Array as="points"><mxPoint x="690" y="305"/></Array></mxGeometry></mxCell><mxCell id="VGFFOROoJUvGb_A7gc8y-22" value="" style="edgeStyle=elbowEdgeStyle;elbow=horizontal;endArrow=classic;html=1;rounded=1;entryX=-0.007;entryY=0.111;entryDx=0;entryDy=0;entryPerimeter=0;" parent="1" source="VGFFOROoJUvGb_A7gc8y-8" target="VGFFOROoJUvGb_A7gc8y-13" edge="1"><mxGeometry width="50" height="50" relative="1" as="geometry"><mxPoint x="510" y="630" as="sourcePoint"/><mxPoint x="560" y="580" as="targetPoint"/></mxGeometry></mxCell><mxCell id="VGFFOROoJUvGb_A7gc8y-23" value="" style="edgeStyle=elbowEdgeStyle;elbow=horizontal;endArrow=classic;html=1;rounded=1;entryX=-0.014;entryY=0.117;entryDx=0;entryDy=0;entryPerimeter=0;" parent="1" source="VGFFOROoJUvGb_A7gc8y-4" target="VGFFOROoJUvGb_A7gc8y-7" edge="1"><mxGeometry width="50" height="50" relative="1" as="geometry"><mxPoint x="360" y="630" as="sourcePoint"/><mxPoint x="410" y="580" as="targetPoint"/></mxGeometry></mxCell><mxCell id="VGFFOROoJUvGb_A7gc8y-24" value="&lt;pre style=&quot;background-color:#ffffff;color:#080808;font-family:'JetBrains Mono',monospace;font-size:9.8pt;&quot;&gt;wallet.extractDealExtraData&lt;/pre&gt;" style="text;html=1;strokeColor=none;align=center;verticalAlign=middle;whiteSpace=wrap;rounded=0;fillColor=#ffffff;" parent="1" vertex="1"><mxGeometry x="220" y="350" width="190" height="30" as="geometry"/></mxCell><mxCell id="VGFFOROoJUvGb_A7gc8y-27" value="" style="edgeStyle=elbowEdgeStyle;elbow=horizontal;endArrow=classic;html=1;rounded=1;entryX=1;entryY=0.111;entryDx=0;entryDy=0;entryPerimeter=0;" parent="1" source="VGFFOROoJUvGb_A7gc8y-18" target="VGFFOROoJUvGb_A7gc8y-13" edge="1"><mxGeometry width="50" height="50" relative="1" as="geometry"><mxPoint x="460" y="510" as="sourcePoint"/><mxPoint x="510" y="460" as="targetPoint"/><Array as="points"><mxPoint x="930" y="270"/></Array></mxGeometry></mxCell><mxCell id="VGFFOROoJUvGb_A7gc8y-28" value="" style="edgeStyle=elbowEdgeStyle;elbow=horizontal;endArrow=classic;html=1;rounded=1;entryX=1;entryY=0;entryDx=0;entryDy=0;" parent="1" source="VGFFOROoJUvGb_A7gc8y-19" target="VGFFOROoJUvGb_A7gc8y-13" edge="1"><mxGeometry width="50" height="50" relative="1" as="geometry"><mxPoint x="870" y="395" as="sourcePoint"/><mxPoint x="870" y="205" as="targetPoint"/><Array as="points"><mxPoint x="940" y="280"/></Array></mxGeometry></mxCell><mxCell id="VGFFOROoJUvGb_A7gc8y-26" value="&lt;span style=&quot;&quot;&gt;DealExtraData.&lt;/span&gt;&lt;span style=&quot;text-align: left;&quot;&gt;members[&lt;/span&gt;Index]" style="text;html=1;strokeColor=none;align=center;verticalAlign=middle;whiteSpace=wrap;rounded=0;fillColor=#ffffff;" parent="1" vertex="1"><mxGeometry x="880" y="290" width="120" height="30" as="geometry"/></mxCell><mxCell id="VGFFOROoJUvGb_A7gc8y-30" value="MemberInformation" style="swimlane;fontStyle=1;childLayout=stackLayout;horizontal=1;startSize=30;horizontalStack=0;resizeParent=1;resizeParentMax=0;resizeLast=0;collapsible=1;marginBottom=0;fillColor=#d5e8d4;strokeColor=#82b366;strokeWidth=2;" parent="1" vertex="1"><mxGeometry x="1070" y="150" width="140" height="180" as="geometry"/></mxCell><mxCell id="VGFFOROoJUvGb_A7gc8y-31" value="id" style="text;strokeColor=#666666;fillColor=#f5f5f5;align=left;verticalAlign=middle;spacingLeft=4;spacingRight=4;overflow=hidden;points=[[0,0.5],[1,0.5]];portConstraint=eastwest;rotatable=0;fontColor=#333333;" parent="VGFFOROoJUvGb_A7gc8y-30" vertex="1"><mxGeometry y="30" width="140" height="30" as="geometry"/></mxCell><mxCell id="VGFFOROoJUvGb_A7gc8y-32" value="signingPublic" style="text;strokeColor=#666666;fillColor=#f5f5f5;align=left;verticalAlign=middle;spacingLeft=4;spacingRight=4;overflow=hidden;points=[[0,0.5],[1,0.5]];portConstraint=eastwest;rotatable=0;fontColor=#333333;" parent="VGFFOROoJUvGb_A7gc8y-30" vertex="1"><mxGeometry y="60" width="140" height="30" as="geometry"/></mxCell><mxCell id="VGFFOROoJUvGb_A7gc8y-33" value="encryptionPublic" style="text;strokeColor=#666666;fillColor=#f5f5f5;align=left;verticalAlign=middle;spacingLeft=4;spacingRight=4;overflow=hidden;points=[[0,0.5],[1,0.5]];portConstraint=eastwest;rotatable=0;fontColor=#333333;" parent="VGFFOROoJUvGb_A7gc8y-30" vertex="1"><mxGeometry y="90" width="140" height="30" as="geometry"/></mxCell><mxCell id="VGFFOROoJUvGb_A7gc8y-34" value="accessPublic" style="text;strokeColor=#666666;fillColor=#f5f5f5;align=left;verticalAlign=middle;spacingLeft=4;spacingRight=4;overflow=hidden;points=[[0,0.5],[1,0.5]];portConstraint=eastwest;rotatable=0;fontColor=#333333;" parent="VGFFOROoJUvGb_A7gc8y-30" vertex="1"><mxGeometry y="120" width="140" height="30" as="geometry"/></mxCell><mxCell id="VGFFOROoJUvGb_A7gc8y-35" value="isAdmin" style="text;strokeColor=#666666;fillColor=#f5f5f5;align=left;verticalAlign=middle;spacingLeft=4;spacingRight=4;overflow=hidden;points=[[0,0.5],[1,0.5]];portConstraint=eastwest;rotatable=0;fontColor=#333333;" parent="VGFFOROoJUvGb_A7gc8y-30" vertex="1"><mxGeometry y="150" width="140" height="30" as="geometry"/></mxCell><mxCell id="VGFFOROoJUvGb_A7gc8y-37" value="" style="edgeStyle=elbowEdgeStyle;elbow=horizontal;endArrow=classic;html=1;rounded=1;entryX=-0.029;entryY=0.067;entryDx=0;entryDy=0;entryPerimeter=0;" parent="1" source="VGFFOROoJUvGb_A7gc8y-14" target="VGFFOROoJUvGb_A7gc8y-30" edge="1"><mxGeometry width="50" height="50" relative="1" as="geometry"><mxPoint x="920" y="600" as="sourcePoint"/><mxPoint x="970" y="550" as="targetPoint"/></mxGeometry></mxCell><mxCell id="VGFFOROoJUvGb_A7gc8y-40" value="∞" style="text;strokeColor=none;align=center;verticalAlign=middle;rounded=0;fontStyle=1;fontSize=16;fillColor=#ffffff;" parent="1" vertex="1"><mxGeometry x="758" y="306" width="26.5" height="20" as="geometry"/></mxCell><mxCell id="VGFFOROoJUvGb_A7gc8y-42" value="1" style="text;html=1;strokeColor=none;align=center;verticalAlign=middle;whiteSpace=wrap;rounded=0;fontSize=14;labelBackgroundColor=none;fillColor=#ffffff;" parent="1" vertex="1"><mxGeometry x="597" y="290" width="13" height="30" as="geometry"/></mxCell><mxCell id="VGFFOROoJUvGb_A7gc8y-43" value="1" style="text;html=1;strokeColor=none;align=center;verticalAlign=middle;whiteSpace=wrap;rounded=0;fontSize=14;labelBackgroundColor=none;fillColor=#ffffff;" parent="1" vertex="1"><mxGeometry x="597" y="261" width="13" height="30" as="geometry"/></mxCell><mxCell id="VGFFOROoJUvGb_A7gc8y-44" value="∞" style="text;strokeColor=none;align=center;verticalAlign=middle;rounded=0;fontStyle=1;fontSize=16;fillColor=#ffffff;" parent="1" vertex="1"><mxGeometry x="670" y="150" width="26.5" height="20" as="geometry"/></mxCell></root></mxGraphModel></diagram></mxfile>